<?xml version="1.0" encoding="UTF-8" standalone="no"?>
<svg xmlns:rdf="http://www.w3.org/1999/02/22-rdf-syntax-ns#" xmlns="http://www.w3.org/2000/svg" height="639.09pt" width="1101.1pt" version="1.1" xmlns:cc="http://creativecommons.org/ns#" xmlns:dc="http://purl.org/dc/elements/1.1/" viewBox="0 0 1101.1062 639.08923">
<g>
<path d="m324.18 90.939c-30.75 29.461-50.32 68.151-67.19 106.7-14.186 31.647-26.191 64.206-37.345 97.028-6.8881 20.679-12.675 41.989-16.713 63.267-2.5465-0.29734-1.9586 3.1676-2.2001 4.6819-2.8067 18.239-4.5614 36.614-6.4913 54.961 23.738 11.659 43.794 29.965 68.707 39.369 3.5842-20.899-1.547-42.766 5.4932-63.065 1.8224-10.38 3.5642-20.785 6.0888-31.033 18.609-79.42 60.055-152.29 113.42-213.52 4.8219-6.1881 10.646-11.491 17.26-15.7 4.3888-3.1534 8.7139-6.6762 11.498-11.392-31.193-9.1804-60.666-23.695-92.328-31.486l-0.19922 0.19336zm-24.72 272.61c-3.265 0.67926-3.3557 4.9122-4.9238 7.2695-4.9507 12.018-6.7818 25.226-12.586 36.869-1.6736-5.9698 2.7765-12.464-0.002-18.34-1.2042-2.0922-6.2666-2.784-5.7051 0.6836-1.3181 15.23-5.3275 30.665-2.0352 45.926 12.399-22.033 22.187-45.579 28.865-69.951-0.16942-1.7265-2.0775-2.5318-3.6133-2.457z" fill="#ececec"/>
<path d="m648.69 105.39c-13.545 1.1882-26.642 5.5559-40.059 7.0684-7.1569 0.58272-14.148 2.4766-21.352 2.5606-26.996 1.4151-54.685-4.9302-81.144 2.8337-12.791 4.1171-23.546 12.879-32.871 22.309-18.161 19.083-29.116 43.712-36.938 68.555-3.0531 3.7002 0.0636 9.6462-3.4082 12.734-0.82008-19.526 6.872-38.16 15.075-55.533 3.6388-7.775 7.3391-15.523 10.638-23.45-21.381 8.1286-45.709 0.89101-66.732 10.654-8.4527 3.8825-13.857 11.78-18.909 19.224-33.476 46.002-61.68 96.528-78.129 151.19-1.2749 5.3205-1.3726 11.472 1.7654 16.167 14.424 9.1183 32.213 7.6381 48.508 7.8324 7.0445 0.11821 14.105 0.64686 20.895 2.525 30.453-50.887 66.585-98.029 103.01-144.72 7.7531 3.2285 17.557 1.4222 22.884-5.327 6.3762-6.8633 9.8513-15.795 15.931-22.876 50.322-0.20723 100.69 1.5843 150.74 7.0234 0.80664-6.619-5.3003-12.164-3.8457-18.738 0.57408-0.91406 2.7853-1.9553 2.1152 0.12695 0.7241 7.6757 4.1319 14.772 7.9121 21.379 22.619 1.348 44.733 7.7736 67.484 7.8887 2.6994-6.8445 2.0793-14.665 5.4082-21.24 4.0816 4.1554 1.8252 10.511 1.1483 15.531-1.9196 8.8962-2.3138 18.576 1.9221 26.905 7.3328 16.166 23.437 26.573 40.129 31.11 15.169 4.7115 32.434 7.1088 47.275 0.0215 5.2063-2.7291 5.3559-10.234 2.2578-14.637-4.2-6.3082-11.347-10.029-15.877-15.975-3.1452-2.8151-4.1746-8.1042-8.4668-9.5098-3.0372-0.14574-4.0133 3.6189-5.0723 5.8281-2.0798 5.1598-0.53344 11.229 3.5827 14.932 4.7674 5.059 11.223 7.9887 17.425 10.872-10 1.1994-18.766-5.7168-24.842-12.928-2.5642-2.7834-2.2242-6.8976-0.0407-9.7715 2.6582-4.2986 7.6342-8.8361 5.9073-14.411-2.5767-5.0728-6.4574-9.3667-8.7803-14.603-7.5572-14.24-13.888-30.544-27.94-39.769-3.5186-2.806-8.0286-3.2145-12.322-3.6014-25.389-3.917-48.866-14.998-71.542-26.583-11.027-4.2996-21.421-11.876-33.743-11.605zm16.006 210.37c-13.567 0.20691-25.577 14.218-22.227 27.698 2.6961 11.712 6.226 23.261 10.428 34.523 3.8799 9.934 8.8151 19.554 15.539 27.881-3.8012 20.879 3.1177 41.57 5.3138 62.202-0.18982 1.5675 1.4689 6.1334-0.11263 5.757-5.1436-3.8014-4.1458-11.062-4.7002-16.627-0.19529-6.1706 0.18822-13.899-5.2626-18.084-2.492-1.5902-5.6002-1.7085-8.4492-1.3262 3.0697 14.053 4.9668 28.39 8.3047 42.367 8.1605 9.1342 12.787 20.727 20.125 30.453 16.529 10.778 41.648 5.8865 52.096-11.098 3.034-4.7484 3.6801-10.497 3.1656-15.994-0.0911-34.804-4.1078-70.125-16.616-102.79-9.9099-17.556-21.364-34.162-32.545-50.919-0.94991 9.8037 7.7625 17.797 6.002 27.604-0.93281 2.9106-4.043 5.3926-7.1309 4.8887 2.2118-3.0418 6.8756-5.9488 5.2264-10.365-3.0769-12.297-7.5742-25.713-18.523-33.215-3.1679-1.9619-6.8952-3.0694-10.633-2.9531zm-66.33 26.254c-6.6356-0.35102-11.256 5.6144-14.564 10.566-5.5922 8.9676-6.8752 20.132-4.375 30.314 3.9535 24.304 12.293 47.751 15.277 72.211-4.6967-5.9346-3.8837-14.014-5.9688-20.869-1.9458-2.601-5.634-0.6124-8.3177-1.1021-24.71 0.78463-48.581 7.9259-72.895 11.588 15.649 6.2088 31.275 13.669 43.244 25.809 9.0766 6.7507 21.032 4.6572 31.541 4.4989 7.5272-0.4456 16.711 1.5682 20.17 9.0903 3.8567 5.632 10.397 8.7019 16.459 11.373 11.877 4.7045 27.046 4.4017 36.686-4.8633 2.3835-1.7456 4.0573-4.5811 3.3463-7.5957-0.18288-31.152-11.49-60.647-17.957-90.756-5.7821-15.562-11.012-32.647-24.106-43.802-5.1949-4.1895-11.844-6.6156-18.539-6.4629zm216.32 129.69c-7.261 0.25855-15.215 2.2954-19.59 8.5957-6.5855 8.2376-7.3648 19.146-10.671 28.77-2.7676 12.533 3.5682 24.564 8.3127 35.707 2.9896 8.0831 11.318 12.559 19.075 15.094 15.07 4.4301 31.343 1.6347 45.77-3.7902 2.8037-1.4434 3.396-5.3093 3.8121-8.2359 0.86223-10.765-6.975-20.049-6.0547-30.84-2.7832-15.888-9.826-32.469-24.014-41.31-4.9863-2.9192-10.861-4.4196-16.64-3.9912zm-37.836 12.025c0.91815 8.1267 0.98933 16.924 5.6543 23.996 1.9619-1.2235 0.075-3.9191 0.9375-5.7109 0.68633-5.287 4.8487-10.993 1.9141-16.24-2.0041-2.549-5.5938-2.6113-8.5547-2.5938l0.0443 0.49803 0.005 0.0508z" fill="#e2d2ab"/>
<path d="m527.27 180.53c-5.385 0.29593-11.069-0.36644-16.281 0.66211-47.292 65.036-90.268 133.06-134.75 200.01-0.89248 2.6493 2.6446 3.9647 4.668 2.9746 20.993-1.8476 42.073-3.5818 63.199-3.4834 44.985-0.18303 89.808 4.5141 134.33 10.591-5.1969-14.769-4.4771-32.498 5.1465-45.352 6.413-7.6822 18.367-10.616 26.994-5.0195 15.442 8.8063 23.727 25.749 29.297 41.994 1.5696 3.7555 2.1318 8.0295 4.1465 11.525 3.2659 3.5481 8.7803 3.7818 13.094 2.293-6.011-18.858-16.188-36.591-18.344-56.512 0.069-16.478 17.758-29.746 33.644-26.054 14.217 4.7725 22.416 18.299 30.411 30.028 14.004 20.438 28.224 42.234 31.646 67.264 107.06 25.531 204.77 82.779 286.06 156.18 2.7169 1.8461 5.1777 6.2943 9.043 4.8066 3.4672-3.4893 4.1328-8.7107 6.5761-12.854 15.317-34.403 26.32-70.49 36.836-106.59 9.2917-30.199 19.131-60.395 24.16-91.668-82.066-64.674-175.4-116.39-276.33-144.63 0.14285 6.0374 6.1783 9.0894 10.941 11.252 3.6662 1.437 8.3164 4.7226 6.7988 9.2773-2.855 11.234-14.501 17.138-25.125 18.803-7.3643 1.4994-14.892 0.6695-22.348 1.0098 10.356 5.1264 21.643 8.1454 32.097 13.067 25.215 10.848 49.69 25.773 66.214 48.183 11.299 13.263 19.736 30.896 16.887 48.687-1.713 9.8908-8.1974 18.352-16.5 23.75-22.516 16.641-51.915 20.928-79.19 17.852-13.626-1.4868-27.064-4.6915-39.882-9.4801-0.65962-3.1108-0.31998-7.0872 2.5137-9.0371 28.042 9.8849 59.764 11.822 87.898 1.2852 14.666-6.4158 26.846-21.117 26.305-37.691-0.65871-12.649-9.0812-23.099-17.176-32.125-18.119-18.902-42.425-29.868-65.691-40.934-42.051-16.592-86.601-28.863-132.11-28.774-19.048-0.37924-39.565 1.224-55.447 12.866-6.5007 4.3893-10.936 11.635-11.336 19.52-0.95765 15.142 8.9818 29.511 22.025 36.484 2.0907 1.3345 6.268 1.6562 5.082 5.127-0.67991 2.8395-4.5251 5.3228-6.9141 2.7715-15.1-4.2777-30.357-13.573-36.08-28.912-3.0311-10.228-3.0228-22.092 3.0544-31.277 8.6541-13.389 23.933-20.384 38.981-23.674 34.044-8.1789 69.523-5.0522 103.65 0.84061 13.767 2.3029 27.465 5.1603 41.172 7.6251 1.9042-0.84237-0.96646-2.4346-1.7473-3.0362-10.45-7.7451-24.547-10.615-32.555-21.407-6.2682-8.9174-8.3573-19.818-10.801-30.217-67.582-10.396-135.77-18.435-204.26-18.002zm44.686 12.529c6.338 0.80401 11.907 4.1539 17.748 6.4805-3.0689 7.4093-9.2717 13.456-10.592 21.592 7.2478 4.2637 15.715 7.5445 20.412 14.949-3.1316 5.4575-6.2832 11.131-11.16 15.248-4.4448-6.2272-11.128-12.461-19.354-11.855-7.3804 14.525-16.581 28.202-22.102 43.615 8.1924 9.5156 19.377 17.961 21.889 30.986 1.6562 13.886-7.542 27.21-19.432 33.597-12.327 6.8837-27.234 8.0908-40.91 5.4869-2.3415 0.50733-2.692 3.5493-4.1928 5.1007-3.561 5.7303-6.3631 11.903-10.032 17.571-5.5874-1.5146-10.338-4.9185-14.924-8.3008 2.6774-7.9011 9.6192-13.991 10.555-22.551-7.2799-6.2819-16.93-9.829-22.607-17.895 4.0393-4.8137 7.281-10.27 11.908-14.57 6.1396 5.2454 10.387 14.09 19.225 15.188 2.7483-1.0962 2.1857-4.9245 3.9004-6.9766 5.2321-10.829 13.496-20.492 15.613-32.646-15.695-11.402-20.885-35.833-9.3371-51.943 10.91-15.913 31.841-23.688 50.509-20.008 5.0164-7.2744 7.8213-15.85 12.883-23.068zm3.8887 3.8066c-2.6833-0.36291-5.2338 1.1582-6.0606 3.7656-3.3525 5.628-5.0818 12.098-8.8379 17.502-13.992-0.47038-29.555-0.55374-41.139 8.5391-15.91 12.193-19.06 37.237-7.2148 53.277 2.6883 3.7534 6.0646 7.0252 9.9512 9.5234-6.4792 14.548-15.536 27.799-22.455 42.143-8.8573-2.2846-14.498-10.044-22.004-14.711-4.2774 2.1636-8.6955 7.6272-5.6562 12.453 4.3712 7.1501 12.754 10.118 19.486 14.35 2.9161 2.7238 0.62003 6.7912-1.1465 9.4524-2.5964 4.2128-6.82 8.544-6.0507 13.889 0.95117 2.8896 4.3534 4.6086 7.1836 4.4394 7.3853-5.4365 8.6536-15.629 15.57-21.469 14.839 2.5917 31.684 2.7065 44.286-6.7392 5.6684-4.4695 9.0121-11.104 12.432-17.282 3.6033-8.5151 0.674-18.236-4.6504-25.334-4.4906-6.4991-10.306-11.931-16.256-17.068 6.9779-15.844 15.733-30.826 22.908-46.574 5.6391-2.6143 10.805 2.366 15.523 4.7672 3.2777 2.1741 8.7011 4.3156 11.599 0.41115 2.7031-3.0988 3.1641-8.3003-0.27188-11.069-4.8994-5.1138-12.627-5.7019-17.844-10.359 2.8005-6.519 8.4639-12.389 8.2988-19.863-0.62596-3.402-4.7287-4.296-7.6523-4.043zm-94.156 10.604c-3.0952 0.46206-6.2793 0.9234-9.3125 1.3066-5.3697 2.7762-7.3714 9.0104-11.537 13.066-34.354 46.013-70.804 90.89-98.174 141.6-16.256 27.549-36.132 52.862-51.04 81.218 83.982-33.321 175.73-42.518 265.48-37.968 1.8218 0.94429 4.3436-0.43542 4.0256-2.6354-0.0464-1.8767-3.5771-1.5078-3.5664-1.9629 2.7873-0.85146 3.7538-5.7043 0.38086-6.5098-44.863-7.9132-90.781-9.1818-136.2-6.1505-22.375 1.529-44.543 5.2335-66.409 10.145-1.3443 2.1889-0.98845 6.4591 2.2402 6.498 6.9328-0.53474 13.71-2.0125 20.622-2.7724 58.007-8.1243 117.29-10.192 175.38-2.2725 1.747 1.4077-1.6884 0.046-2.4355 0.18359-61.469-9.1751-123.87-2.478-184.99 6.1959-3.6605 0.52454-7.3211 1.0491-10.982 1.5736-3.604-6.0497-9.5908-12.469-7.6231-20.092 2.4719-5.2424 6.5009-9.567 9.2856-14.651 35.612-54.715 72.338-108.72 107.85-163.49 0.56248-1.865-1.1869-3.4714-2.9961-3.2852zm143.11 3.0312c27.225 4.5199 55.189 4.6014 81.832 12.34-0.56847 3.104-3.8774 6.6371-7.1856 4.7988-29.605-4.8968-59.785 1.3072-87.824 10.859 2.4119-9.8985 6.1509-19.486 11.207-28.336l1.9707 0.33789zm-1.0703 2.875c-4.7264 6.0787-7.4847 13.457-8.9766 20.955 25.592-7.8705 52.56-9.2819 79.1-10.438 1.5539-1.2245-1.2763-2.0523-2.2168-2.1367-22.174-5.5132-45.198-5.5938-67.732-8.6152l-0.17382 0.23437zm-73.656 19.619c2.0838 0.1608-0.41825 2.5644-0.55468 3.627-5.7953 12.214-10.856 24.863-18.713 35.916-8.4658-5.581-9.3844-17.988-4.3086-26.174 4.346-8.1951 13.392-13.389 22.59-13.322 0.32902-0.009 0.65627-0.0654 0.98632-0.0469zm-5.2637 4.293c-11.157-0.20684-19.954 11.783-18.105 22.398 0.59152 2.6882 2.1716 5.1261 4.3848 6.7637 4.9578-9.5795 13.008-18.041 14.305-29.164l-0.5 0.002-0.084 0.00028zm126.9 4.1309c-15.63 0.45167-31.343 2.5327-46.312 7.1355-13.026 4.3607-26.155 12.091-32.415 24.817-5.8273 13.394-0.70861 29.184 8.8421 39.493 5.6423 6.4836 13.241 10.833 21.114 13.998 1.8993 1.5046 5.6596 2.9155 6.8374-0.16629 0.91245-2.9424-3.1693-3.5672-4.6538-5.2292-11.662-8.5484-22.087-21.514-21.606-36.727 0.34691-10.587 8.023-19.548 16.851-24.851 15.938-9.7221 35.348-10.647 53.557-10.458 39.738 1.0258 79.129 9.4383 116.47 22.946 17.94 6.656 35.65 14.259 52.315 23.697 16.301 11.232 31.871 24.429 42.28 41.452 8.5975 16.66 4.0316 39.977-12.219 50.262-24.328 14.575-54.385 15.435-81.449 9.4665-5.5325-1.043-10.906-3.1022-16.367-4.0837-2.8505 0.73475-2.3424 5.5404 0.71845 5.4961 30.48 10.353 64.972 12.655 95.241 0.33202 10.136-4.3922 20.302-9.8219 27.678-18.223 10.522-13.587 8.9866-33.567-0.0806-47.504-11.05-18.36-27.17-33.3-44.97-44.98-54.84-31.84-118.56-47.35-181.82-46.89zm17.543 20.094c28.579 0.0505 58.52 5.2434 82.178 22.3 2.6964 2.5635-0.93787 5.6937-2.5448 7.7294-0.50584 1.2612-1.6456 2.3485-2.8457 1.0996-24.545-14.669-53.873-23.152-82.541-19.086-13.267 2.0963-26.175 7.6858-36.035 16.926-2.5531-3.0125-5.2191-5.9722-7.2441-9.3809 11.503-14.608 31.21-19.592 49.033-19.588zm2.8438 2.4453c-14.733 0.2468-30.553 1.7128-42.934 10.49-3.1451 2.1462-6.509 6.2383-4.207 10.148 0.88986 1.6945 3.3536 3.8231 4.5898 1.2871 11.733-11.431 28.884-14.174 44.596-13.99 16.686 0.13475 33.246 3.1751 49.295 7.7379 8.5651 2.7562 16.854 6.7996 23.607 12.756 2.2943-1.641 5.2543-5.3306 2.625-7.9238-22.753-15.05-50.602-20.705-77.572-20.506zm206.56 17.404c29.518 13.237 57.328 29.859 85.779 45.168-9.8047 15.57-19.466 31.258-30.332 46.121-6.6794-1.2026-12.205-5.4479-17.82-8.9688-3.5184-24.044-10.482-48.986-27.445-67.174-3.629-4.2145-8.3214-7.4078-12.332-11.121-0.68985-1.3441-0.69569-4.4672 0.63701-4.6943 0.50446 0.22298 1.0089 0.44597 1.5134 0.66895zm4.7598 5.8027c12.689 16.24 27.078 32.403 32.25 52.93 1.6841 5.7598 1.7662 11.682 1.8316 17.61 1.6765 6.964 9.4078 10.065 15.799 10.935 2.8246-0.80634 3.557-4.2528 5.5205-6.1312 7.2857-10.538 13.52-21.78 20.765-32.332 1.1753-2.6258-0.88675-5.345-3.5042-5.7935-25.153-11.842-48.401-27.334-73.761-38.757 0.36654 0.51302 0.73307 1.026 1.0996 1.5391zm-224.44 3.4551c7.0719 3.4261 15.347 7.1102 23.219 4.0488 10.473-1.9251 19.25 5.6308 27.816 10.34 6.6684 4.0372 14.6 4.7841 22.218 4.4381 26.25 0.55685 53.682 0.7996 77.691 12.582 6.3204 3.2868 14.604 6.6624 15.773 14.62 1.1875 4.6373-1.3061 11.025-6.7852 10.98-2.0318 0.20269-4.26-0.45648-4.2494-2.8176-3.2482-9.5969-13.227-14.103-21.799-17.903-14.852-5.9969-31.272-5.2007-46.985-5.5445-17.902-0.10507-36.955-0.7796-52.522-10.647-3.9227-2.899-8.1323-5.8806-13.241-5.8853-7.835-0.65923-16.349 2.043-23.447-2.4018-1.2994-4.069 0.88697-8.1037 2.0039-11.943l0.30665 0.13281zm-0.16993 4.8926c0.63587 5.675 6.8948 8.2316 11.968 7.8344 7.8149 0.19094 16.906-1.7422 22.895 4.5745 12.996 10.437 30.428 12.246 46.508 12.675 18.843 0.46791 38.704-1.3783 56.377 6.3493 7.8861 3.5581 14.49 9.8601 19.289 16.904 4.355 1.1693 8.2365-3.7462 6.6582-7.8184-1.6346-5.9828-8.1629-8.3004-12.857-11.377-20.529-10.924-44.456-10.41-67.001-12.153-12.408-1.0487-25.209-2.1319-36.675-7.3019-10.757-8.3528-25.138-7.1813-37.902-8.6058-3.2095-0.37346-6.3519-1.0334-9.4979-1.9251l0.13589 0.48118 0.10239 0.36257zm-144.82 3.5664c7.5992 6.5444 13.359 18.079 8.4688 27.861-2.9987 7.1148-10.856 10.141-18.018 10.316-3.4741 0.099-6.9082-0.4788-10.092-1.8926 4.9496-12.961 14.099-23.713 19.336-36.545l0.30469 0.25977zm-0.17578 6.4238c-5.2323 9.0332-11.949 17.476-14.77 27.693 5.186 4.5913 13.983 3.5093 17.908-2.2108 5.0837-6.059 7.3823-15.869 2.2935-22.586-1.3462-1.41-3.703-3.3349-5.4316-2.8965zm502.89 31.756c6.4116 1.8107 11.857 5.8566 16.986 9.9609-3.6006 6.3109-8.8346 11.816-11.4 18.641-0.4131 5.7111 6.2985 7.7453 8.791 11.967 2.1048 3.4437-1.2264 6.5569-2.8714 9.2882-1.8899 2.8093-3.9188 5.5197-5.7692 8.3583-4.1944-4.0488-3.5909-12.058-9.8633-14.127-3.0948-1.118-4.6025 2.4565-5.8771 4.4815-5.347 7.8147-10.41 15.841-14.779 24.247 10.419 13.76 17.012 32.712 10.549 49.529-3.8328 9.5587-11.858 18.307-22.568 19.779-9.7883 1.7792-19.584-0.91777-28.855-3.8477-3.5878 0.4972-5.0638 4.6411-6.7715 7.3281-1.8969 3.6769-3.6416 8.8624-8.2695 9.6445-3.7641-1.5088-7.3194-3.6689-10.783-5.8027-2.3868-1.371-3.4538-4.675-1.1641-6.709 3.3096-5.0558 7.3226-9.6655 10.041-15.096-7.2849-5.9634-14.111-12.95-17.863-21.703 4.6682-5.6712 9.0185-11.798 15.059-16.123 0.90343 8.024 4.0998 17.427 12.305 20.568 2.7064 0.94848 2.7858-2.8895 4.1177-4.2803 5.8314-9.9674 13.27-18.953 18.374-29.351-5.0561-11.01-13.483-21.817-11.887-34.629 0.99917-7.0726 7.2528-11.721 12.395-15.961 8.1578-5.7198 18.452-9.3768 28.42-7.625 4.6483 2.4492 10.45-0.16067 12.732-4.6461 3.1633-4.4836 4.7581-10.294 8.9535-13.893zm1.125 4.3223c-2.2452 0.46408-3.1346 3.4592-4.666 5.0898-2.9673 4.2958-5.6157 8.8078-8.7226 13.01-17.232-6.1605-38.491 1.2958-47.549 17.314-2.334 12.023 4.7785 22.976 10.076 33.131 1.1988 1.887 2.5738 4.4856 0.77317 6.4396-5.8292 12.297-14.225 23.095-21.967 34.207-7.0659-0.68525-9.7622-8.2707-13.746-13.037-1.2891-1.8711-3.6199-4.4612-5.9199-2.4512-4.5998 2.2916-7.6189 8.0932-5.1953 12.986 2.588 7.1259 9.2657 11.448 14.967 15.801 1.7085 3.9611-2.6942 6.9642-4.6055 9.9082-2.5118 2.86-6.2119 7.0288-3.7852 10.998 2.6238 3.9498 9.3308 5.0228 12.043 0.56836 3.2468-3.8907 4.1116-9.7943 8.8926-12.303 8.5806 2.6067 17.639 4.4762 26.654 3.0781 9.4369-1.3205 19.538-5.9029 23.41-15.211 6.6899-14.398 2.4247-31.404-5.8106-44.23-1.3437-2.0954-2.8098-4.1121-4.4004-6.0273 6.9878-11.749 14.266-23.334 22.094-34.543 5.7702 3.0432 8.4829 9.2847 12.334 14.205 4.9133-2.2872 7.6168-8.8696 4.4307-13.597-2.2121-4.3137-5.9926-7.5011-9.6045-10.608 2.641-6.7513 9.3939-11.997 9.4316-19.658-0.6944-4.0728-5.6762-5.1692-9.1348-5.0703zm-311.44 8.0293c35.881 14.148 74.133 25.521 113.12 23.029 0.97699-0.20585 3.3954-0.58622 2.4726 1.2246-0.18764 4.4994-0.46123 10.837-5.4785 12.697-29.927 0.50092-59.651-5.4686-88.026-14.733-9.1217-2.98-18.158-6.4032-27.066-9.8451-3.4149-2.1718-1.9466-6.5499-0.40625-9.4102 1.1551-1.605 2.0114-5.3106 4.4522-3.3381l0.93646 0.37524zm-1.748 2.5606c-3.2599 1.644-3.1802 6.7873 0.17188 8.293 7.3067 4.6569 15.852 6.6423 23.906 9.5662 22.255 6.8936 45.297 11.045 68.245 14.698 6.5914-0.52858 13.964 2.7422 20.047-1.0336 2.2122-1.853 2.3353-5.1016 1.6563-7.7012-39.109 0.14473-77.739-9.1785-113.79-24.021l-0.23243 0.19922zm288.99 20.176c1.2625-0.16661 4.4513 0.51993 2.448 2.0988-6.8813 7.8023-9.2065 18.932-17.846 25.229-6.6678-5.2761-6.4009-16.157-0.33833-21.809 4.0062-4.1441 10.038-5.7669 15.737-5.5193zm-6.3652 3.0215c-6.2628 1.2669-12.569 7.3178-11.152 14.111 0.41778 1.711 2.4397 4.6804 4.1817 2.5606 4.2729-3.7859 8.548-8.4046 9.7168-14.146-0.027-1.4248-1.2813-2.7078-2.7461-2.5254zm-542.73 7.1328c-31.261-0.28269-62.535 2.336-93.377 7.3992-3.1678-0.48657-2.2259 3.0555-1.5857 4.9386 0.7219 2.5591 3.8793 3.5985 6.0325 2.0032 8.3136-2.5753 17.03-3.3778 25.59-4.944 31.806-4.7729 64.071-5.9598 96.206-5.653 1.412-0.16487 1.2168-1.9821-0.19531-1.957-10.739-1.9051-21.778-1.786-32.67-1.7871zm454.07 15.938c6.729 2.7224 12.321 7.3528 18.051 11.734-11.53 14.897-21.589 30.956-33.426 45.582-3.6762 0.20204-5.8051-3.5446-9.002-4.8398-13.564-8.6909-28.299-15.29-42.188-23.416 24.492-2.4822 48.002-13.029 66.564-29.061zm-272.52 0.92774c-0.9478 4.0611 3.3919 6.591 6.8984 6.6309 2.4736-0.17345 5.6101 0.84505 7.6113-0.85938 1.1122-3.5741-3.3047-5.523-6.2322-5.2811-2.7592-0.2525-5.635-0.0325-8.2405-1.1525l-0.028 0.49921-0.009 0.1629zm271.84 3.9707c-16.115 10.976-32.638 23.094-52.395 26.033 9.7365 8.2589 21.808 12.992 32.016 20.557 2.4613 1.5571 6.362 1.3443 7.5848-1.6732 8.5524-12.488 18.527-24.023 25.948-37.266-2.724-4.4356-7.8593-7.9306-13.154-7.6504zm-360.81 3.0547c-50.887 0.75787-101.95 4.0815-151.95 14.01-33.956 6.8737-67.488 16.891-98.728 31.963-3.19 0.93054-1.1195 6.4088 1.8806 4.9898 25.974-10.453 52.517-19.455 79.747-26.007 64.121-15.77 130.44-20.651 196.34-20.231-7.8012-5.8559-18.138-4.845-27.295-4.7246zm91.27 1.0117c-0.65338 3.945 3.7661 5.731 6.9824 5.8203 2.4178-0.37662 4.9704 1.4452 7.25 0.41601 1.6093-3.3457-2.457-6.596-5.666-6.4512-2.8493-0.16084-5.7334 0.18843-8.5547-0.35937l-0.0102 0.49989-0.002 0.0743zm-70.766 5.6719c-10.047 1.1587-20.16 0.19361-30.265 0.77937-78.473 2.0594-157.69 13.616-230.68 43.525-3.7498 1.8117-8.3107 2.5908-11.469 5.418-1.8067 2.1761-1.5146 7.216 2.0938 7.0469 40.533-19.018 83.796-31.713 127.83-39.479 49.061-8.7421 98.955-11.779 148.74-12.467 0.39527-3.5165-3.2818-5.0653-6.2422-4.8242zm74.822 1.2969c-2.925-0.14088-2.6473 4.4604-0.004 4.709 3.1451 1.0461 7.1153 2.0597 10.07 0.38086 1.34-3.2514-2.7787-5.2442-5.4844-4.9356-1.5276-0.0427-3.0526-0.19666-4.582-0.15429zm84.361 0.90039c-3.9096 2.1058-1.0738 8.6777 2.998 8.2852 28.876 6.7466 57.726 14.875 83.998 28.917 69.446 34.523 137.25 73.54 196.87 123.48 1.6969 1.1961 4.3238 3.7015 6.3887 1.9551 1.3738-3.2453-2.8765-4.7427-4.5586-6.6426-37.64-32.29-77.59-62.06-119.63-88.51-52.01-29.22-106.16-57.69-165.66-67.53l-0.16211-0.0274-0.14453 0.0723zm-159.25 4.1562c-10.26 1.8357-20.298 4.7712-30.507 6.8921-50.916 11.875-102.28 25.424-148.22 51.094-1.7839 0.005-2.4144 2.2701-0.6543 2.9199 5.2501 3.1264 10.888-0.92957 15.529-3.2734 38.427-21.451 81.155-33.788 124.27-41.518 15.252-2.8295 30.642-4.8859 45.994-7.033 2.9396-0.54801 2.6219-4.9027 1.0508-6.8066-1.7105-2.1774-4.9267-2.296-7.459-2.2754zm-29.219 1.418c-12.441 0.91121-24.486 4.5046-36.691 6.886-42.66 9.6978-84.614 23.092-124.17 41.895-2.0625 3.3446 2.6929 8.1798 5.8418 5.3457 49.953-24.372 103.83-39.391 158.01-50.889 1.8789-0.61819 1.4664-3.5542-0.6875-3.1699-0.76491-0.0882-1.5361-0.0817-2.3047-0.0684zm-43.191 0.71093c-2.5692 0.38917-4.4818 2.9052-7.2368 2.3476-32.024 3.807-64.261 7.9978-95.328 16.711-5.6578 6.8304-10.633 14.419-13.256 22.961 37.63-15.339 76.29-28.402 116.02-36.998 2.0091-0.88788 2.7448-4.9984-0.20117-5.0215zm152.74 0.22266c-1.8413 0.45198-5.4631-0.81723-5.7617 1.9824 0.10037 3.578 4.5407 3.8032 7.2051 3.7012 1.4996-0.49187 3.9401 1.5228 4.7812-0.375 0.97998-2.8887-1.7243-5.319-4.4902-5.2578-0.57597-0.0591-1.1559-0.0763-1.7344-0.0508zm340.7 1.1309c7.1334 8.4064 7.7301 22.283 0.44922 30.766-4.5129 4.4835-11.226 5.4563-17.244 6.5742-1.8592 0.3582-6.0085-1.0433-3.9375-3.4629 4.1062-6.2088 7.3051-13.044 11.27-19.381 2.9469-4.9935 5.9913-9.9323 9.2596-14.723l0.20312 0.22656zm-261.14 3.4434c-1.8619 2.9942 1.4573 6.21 4.4531 6.2246 94.423 29.177 179.59 84.732 248.8 154.82 2.8911 2.9272 5.7516 5.8842 8.6049 8.8482 5.3239-3.3185 4.6826-10.439 3.9819-15.796-0.9162-5.6876-1.653-11.579-2.3334-17.185-49.56-38.81-102.71-73.48-159.89-100.12-32.89-16.13-66.73-32.29-103.43-37.14l-0.14453 0.36524zm259.23 3.6992c-4.7042 9.2679-12.898 17.047-14.703 27.666 12.196 2.3603 23.896-11.738 19.244-23.252-0.9241-2.0071-2.4849-3.6566-4.2617-4.9414l-0.23402 0.44186-0.0453 0.0855zm-339.81-0.3418c-2.5957-0.24128-3.8831 3.0411-1.9492 4.709 2.659 2.2774 6.5484 1.1762 9.7363 1.5801 2.5128-0.87681 1.0086-4.7386-1.0371-5.3945-2.0991-0.97934-4.4887-0.92397-6.75-0.89453zm81.217 5.6328c0.0349 2.9607 1.002 7.2174 4.6191 7.4219 22.369 6.2626 43.865 15.374 64.578 25.791 5.2389 1.9037 11.01 1.1018 16.236-0.42578-26.927-14.809-56.079-25.032-85.525-33.541l0.0604 0.49633 0.0314 0.25757zm3.6465 10.021c-3.0606 0.81317-1.6197 5.7502 1.2402 5.5801 19.478 5.344 38.076 13.342 56.301 21.873 2.3428 0.57142 6.0273-2.0403 3.9512-4.4199-11.55-6.2923-23.869-11.098-36.172-15.699-8.2777-2.9253-16.731-5.6192-25.32-7.3338zm-1.4453 9.2871c12.719 10.921 30.308 12.524 44.67 20.451 2.8996 0.85006 6.1489 3.945 9.1699 1.7598 1.8348-1.7381 0.29735-4.6193-2.0575-4.6352-17.048-7.9311-34.678-14.906-53.116-18.832 0.44466 0.41862 0.88932 0.83724 1.334 1.2559zm1.1621 7.9863c12.482 9.524 29.443 10.107 42.031 19.43 1.908 0.91175 5.784 1.6897 6.3203-1.1445-1.1072-3.8975-6.0741-3.7078-8.906-5.6868-13.134-5.783-26.46-11.795-40.805-13.76 0.45313 0.38737 0.90625 0.77474 1.3594 1.1621zm98.443 14.615c5.2305 7.1285 8.6525 16.54 17.244 20.411 46.606 29.988 88.449 67.944 120.56 113.25 2.4218 0.34481 5.7172-2.7312 3.4375-4.877-28.661-38.155-63.655-70.877-98.141-103.63-13.736-10.358-28.306-19.781-44.129-26.636 0.3444 0.49414 0.6888 0.98828 1.0332 1.4824zm16.023 23.131c-3.3657 1.053-1.4913 6.0869 1.1991 6.8667 42.44 23.697 77.208 59.647 103.89 99.848 2.1311 3.6584 4.1862 8.9953 9.0059 9.5274 2.7127-0.11701 6.4856-3.6455 3.5204-6.0099-31.025-44.33-72.028-81.082-117.4-110.29l-0.21289 0.0547zm0.2832 10.182c27.171 29.462 56.48 57.974 75.561 93.654 3.8089 6.6429 6.4908 13.873 9.7031 20.766 3.6409 2.7782 8.7495-3.0991 5.8262-6.4531-17.202-35.303-41.429-66.808-68.667-94.925-6.6619-6.4243-14.521-11.914-23.546-14.368 0.37435 0.44205 0.7487 0.88411 1.123 1.3262zm48.006 7.2207c-1.6502 0.88936 1.2673 2.9432 1.8953 3.7842 26.634 27.49 53.904 54.562 77.4 84.835 1.6773 1.3867 4.6645-0.68998 3.1211-2.5957-21.389-33.19-47.916-63.824-81.113-85.625-0.41791-0.0679-0.82771-0.35729-1.3027-0.39844zm-45.832 3.8398c-1.6565 4.4378 2.7781 7.601 5.5664 10.213 29.518 28.016 50.493 63.435 68.697 99.477 2.3442 2.7323 8.7685 1.4065 7.8809-2.8242-5.4145-11.682-10.945-23.351-18.124-34.077-11.128-17.299-23.939-33.459-36.754-49.51-8.7911-8.1307-15.315-19.609-27.128-23.835l-0.12087 0.48517-0.0178 0.0715zm43.035 20.928c-1.5474 1.1288 1.0968 3.2936 1.6068 4.4142 16.033 22.815 32.741 45.241 47.079 69.166 2.688-15.618-4.9252-30.994-15.32-42.202-10.127-11.333-21.915-21.036-33.022-31.335-0.11455-0.0151-0.22733-0.099-0.34375-0.043zm65.178 28.432c5.7284 9.6558 13.18 18.231 19.546 27.46 2.044 2.5782 3.5574 7.0689 7.6472 6.431 3.2023 0.1055 6.8705-3.7961 4.157-6.6466-4.0633-4.5247-8.853-8.3481-12.978-12.834-5.8626-5.8754-11.904-11.718-19.097-15.959 0.24154 0.51628 0.48307 1.0326 0.72461 1.5488z" fill="#7fa078"/>
<path d="m0 0v0.77969c0.2-0.2 0.59062-0.58969 0.79062-0.77969zm101.62 0 0.18907 0.87969c-31.161 44.5-61.439 90.941-77.669 143.26-19.46 63.25-20.111 130.11-24.141 195.53v12.03 3.5906c64.26 20.44 129.97 37.459 192.69 63.019 24.84 14.78 50.049 30.42 75.989 42.37 21.31-33.98 33.871-73.069 49.241-110.04 13.71-0.85 32.27-2.31 44.97 2.5-16.91 34.72-42.43 65.659-61.07 99.759 1.83 7.07-2.6303 17.88 3.3797 22.97 28.71-12.33 57.47-29.43 89.12-32.18-0.83 10-14.94 20.689-10.2 32.759 7.3 11.1 23.34 10.219 32.67 2.2594 25.31-11.62 50.73-23.649 77.8-30.609 22.61-1.88 40.309 13.98 57.789 25.6 16.02 10.85 41.37-4.5406 51.07 16.859 15.3 8.01 36.31 17.961 52.05 4.9609 3.84-1.58 4.1803-8.14 8.1703-8.35 7.47 9.16 10.86 22.399 22.13 28.059 15.62 7.43 36.21 4.7 48.85-7.45 11.58-8.5 8.3206-24.84 9.5406-37.13 8.37 0.06 16.58 5.9903 24.6 8.4703 11.38 24.11 11.229 53.31 26.159 75.93 16.91 12.82 40.621 11.14 60.041 6.1 11.09-2.39 8.7097-15.029 9.6797-23.209 28.89 27.34 48.09 62.98 66.5 97.85 4.63 9.41 11.63-4.1412 17.68-5.7312 9.04-3.31 7.5194-13.719 6.8594-21.439 6.16 0.31 6.971 15.07 15.161 11.33 10.01-6.28 21.13-10.35 31.92-15 6.64-10.13 1.9791-23.52 2.3391-34.88 9.05 0.49 14.58 14.84 23.8 12.07 33.6-68.29 51.221-142.87 71.491-215.85 2.78-6.69-3.5106-10.57-7.7906-14.05-83.49-63.28-177.22-113.73-278.2-142.56-22.36-21.37-24.76-67.84-61.9-70.2-31.59-5.17-58.7-23.34-88.05-34.98-17.9-8.85-36.23 1.9106-54.05 4.8906-27.9 7.01-56.11-3.9112-84.22-0.38124-24.34 1.8-47.579 12.75-64.309 30.6-10.07 0.75-20.21 0.55-30.3 0.25-0.87-6.28 1.8791-15.96-6.7109-17.78-24.22-9.2-50.329-14.74-73.289-26.9 1.22-7.06-0.19093-16.77-8.7109-18.23-23.09-6.5-45.3-15.47-68.23-22.58-55.16-23.069-115.56-30.049-170.25-54.369zm224.86 91.259c30.65 7.57 60.001 21.87 90.461 30.95-5.82 9.06-18.471 13.411-25.091 22.661-62.06 70-108.66 156.3-122.66 249.18-6.54 14.32-2.2306 43.279-5.2406 60.909-23.84-9.22-43.831-27.169-66.841-38.559 1.97-18.79 3.78-37.719 6.75-56.409 7.5045-38.087 29.515-97.172 43.411-133.65 20.55-47.96 40.869-98.211 79.209-135.08zm323.41 15.123c11.948 0.21068 22.442 8.0469 33.591 12.077 24.29 12.89 50.34 24.311 77.87 27.091 21.76 10.59 26.29 36.49 39.78 54.42 6.19 8.51-11.81 16.259-5.5203 25.339 6.39 8.52 18.501 17.48 29.431 13.65-9.78-4.43-30.48-12.97-22.04-27.96 3.3-8.37 7.2006 2.96 10.441 5.6 5.91 9.19 24.079 15.69 15.969 28.68-18.21 10.59-44.579 3.26-60.889-3.75-17.94-8.44-34.06-26.89-29.33-48.17 0.65-6.29 4.6791-17.909-2.0109-21.319-3.53 6.57-3.1597 14.729-5.6297 21.769-22.3-0.22-43.98-6.4691-66.17-7.8391-3.97-6.98-7.5-14.57-7.65-22.77-10.03 0.44 0.42093 14.139-0.0891 19.859-49.79-5.37-100.06-7.1488-150.25-6.9188-11.14 12.55-15.99 36.46-38.69 28.01-36.32 46.53-72.68 93.919-103.15 144.76-22.61-6.02-47.719 2.8706-68.409-10.059-3.47-6.11-2.16-14.08 0.35-20.35 17.19-54.6 46.169-104.97 80.169-150.84 17.05-27.88 52.63-14.43 79.17-23.53-10.5 25.04-26.729 50.21-24.789 78.77 5.84-0.73 2.0597-10.439 5.1797-13.709 11.07-35.52 29.639-72.181 64.959-89.011 33.41-11.92 69.591 1.2306 103.51-6.6094 12.26-0.26 23.8-4.9509 35.95-6.0609 2.4281-0.72032 4.7853-1.0674 7.0875-1.1234 0.38849-0.009 0.77553-0.01 1.1609-0.003zm-117.45 75.131c66.472-0.023 132.7 7.8288 198.27 17.906 2.64 11.4 5.4012 25.28 14.531 34.35 8.95 7.5 22.239 11.659 30.539 18.309-48.19-9.21-98.59-20.4-147.2-7.5-20.69 4.4-44.29 20.54-41.55 44.33-0.37 21.31 19.961 35.551 38.541 40.641 5.84 4.91 12.32-7.3594 5.3-8.4094-18.38-7.78-32.701-33.09-18.691-50.92 19.13-19.09 48.661-17.981 73.561-16.991 41.22 1.77 81.2 13.671 119.38 28.661 28.73 13.82 61.239 28.459 77.209 57.739 12.86 22.97-6.5297 48.08-29.28 53.38-25.94 7.4-54.73 5.0209-79.92-4.0391-3.7 1.46-4.3597 8.3003-3.2297 10.92 40.93 15.33 94.51 16.91 128.18-14.8 18.32-19.06 8.0597-49.26-7.4703-66.7-23.05-32.01-60.659-47.82-96.559-60.7 15.13 1.5 40.49-1.21 45.45-20.3 2.88-10.92-15.97-9.94-17.45-19.3 99.81 28.1 192.67 79.609 274.01 143.66-5.9 36.36-18.319 71.29-28.759 106.55-9.86 34.85-21.791 69.13-37.091 101.98-2.34 4.49-6.7594-1.9697-9.0594-3.4297-81.3-73.33-178.87-130.61-285.84-156.21-4.22-29.24-22.569-53.371-38.709-77.281-6.5-8.84-14.41-17.729-25.47-20.609-17.26-2.54-35.909 12.781-33.139 31.041 3.27 18.21 12 34.939 17.8 52.289-2.9 1.1-11.371 0.76-12.241-4.8-6.28-21.16-16.26-45.529-38.27-53.889-28.7-4.3-35.7 31.799-28.35 52.689-63.04-8.57-126.86-14.28-190.39-7.2203-1.89-1.13-11.721 3.0706-8.9609-2.2094 44.53-66.4 87.04-134.25 134.17-198.87 6.8812-0.17719 13.76-0.26324 20.636-0.26563zm39.01 10.49c-5.14 7.18-7.92 15.69-12.85 23.03-24.45-4.58-53.17 10.72-57.17 36.52-1.26 13.84 4.0903 28.511 15.37 36.941-2.51 13.71-13.701 24.85-18.041 38.25-9.07-0.91-13.269-10.79-19.639-15.55-5.14 4.53-8.6703 10.659-13.12 15.839 5.52 8.46 15.391 12.141 22.791 18.361-1.07 8.18-8.33 14.549-10.65 22.519 4.92 3.68 10.479 7.6612 16.539 9.0812 4.91-7.41 8.2709-15.851 13.661-22.941 23.43 5.16 53.939-3.6697 60.639-29.33 5.57-17.77-10.82-30.39-20.92-41.85 5.4-14.89 14.38-28.311 21.57-42.411 7.98-0.38 14.28 6.2709 18.55 12.311 5.24-3.92 9.2209-10.861 12.511-16.711-4.41-7.6-13.15-11.239-20.45-15.439 1.46-7.78 8.0094-14.071 10.759-21.641-6.4-2.44-12.64-6.3497-19.55-6.9797zm5.7047 5.8656c12.312 0.44765 0.26045 15.204-3.1453 23.114 4.45 5.52 19.551 6.5706 20.681 15.591-4.48 18.39-19.191-6.7803-29.261-0.27031-7.3 16.08-16.349 31.48-23.359 47.57 12.58 10.68 31.839 29.37 17.909 47.13-9.15 20.38-33.619 21.489-52.789 17.959-6.8 5.05-9.1506 17.141-15.891 21.731-18.29-4.55 13.99-22.89-1.0297-29-7.9-4.75-27.441-13.671-12.191-23.591 7.33 4.76 13.761 13.01 22.561 14.67 7.1-14.9 16.559-28.54 23.169-43.67-21.26-13.12-23.389-44.451-4.4594-60.741 11.44-9.99 27.889-9.6494 42.109-9.2094 4.7-6.45 6.2912-14.629 11.181-20.959 1.2094-0.18312 2.2875-0.2892 3.2453-0.32344 0.44896-0.0161 0.8716-0.016 1.2688-0.002zm-95.694 10.63c1.4994-0.059 2.5203 0.37969 2.2391 2.1047-37.86 58.02-76.821 115.46-114.54 173.61-7.73 8.51 0.96093 18.431 5.5109 25.861 67.57-9.82 136.91-18.32 204.75-6.5 1.79 0.49 0.17031 3.1203-1.3797 2.1703-89.08-4.6-180.72 4.2994-264.24 37.009 16.77-31.28 39.659-59.141 56.359-90.591 26.68-46.6 60.731-88.319 92.681-131.32 3.88-3.58 5.64-9.8509 10.95-11.561 1.3438 0.79375 5.1713-0.68603 7.6703-0.78438zm140.85 0.56407c-5.46 9.35-9.6697 20.27-12.08 30.97 28.28-9.76 58.931-16.42 89.061-11.4 4.3 2.3 8.2294-2.9394 8.4594-6.5094-27.84-8.27-57.051-8.0209-85.441-13.061zm2.05 5.15c22.44 2.95 48.021 3.3006 68.591 8.9406-24.4 0.55-52.08 2.42-76.85 9.75 1.37-6.53 4.2994-13.651 8.2594-18.691zm-74.395 17.784c-1.5188 0.002-3.4838 0.50125-4.3438 0.45625-19.94 1.31-32.671 29.649-14.561 41.459 8.43-11.44 14.19-26.16 20.57-39.38 0.925-2.04-0.14687-2.5372-1.6656-2.5359zm-5.7234 6.2969c-1 8.74-9.2503 18.86-13.42 26.58-8.83-7.74 0.81031-26.81 13.42-26.58zm127.48 4.1297c64.134-0.49925 129.04 15.593 184.33 48.52 16.93 12.28 32.54 26.59 42.9 45.05 9.25 15.84 8.4997 39.2-7.6703 50.3-32.67 24.76-78.47 24.21-115.82 11.25-2.65-0.43-1.2991-4.6112 1.2109-3.1312 31.15 9.73 67.29 11.47 96.27-5.4797 19.68-12.26 22.829-41.859 8.1687-59.059-10.91-14.37-24.969-26.101-39.939-36.061-51.43-26.99-108.62-43.53-166.8-45.45-24.01-0.26-53.49 1.8306-68.17 23.791-11.33 20.94 5.4606 42.48 22.791 53.13-0.43 5.35-5.8412-0.1-8.5312-0.75-20.9-7.59-37.56-34.539-24.13-55.189 15.84-21.18 44.731-24.43 69.191-26.82 2.0669-0.0506 4.1343-0.0839 6.2031-0.1zm14.797 18.109c-17.57 0.55-36.4 5.9206-47.5 20.491 2.26 4.01 5.4203 7.3994 8.3703 10.909 31.78-30.4 85.999-18.819 120.46 2.9109 1.81-3.79 9.2594-8.6512 3.6094-12.281-24.32-17.29-55.749-22.37-84.939-22.03zm7.3906 4.4219c25.98 0.0366 52.452 5.6747 74.389 19.748 3.12 1.77 0.55062 4.7303-1.2594 6.3703-15.94-13.57-37.82-16.24-57.72-19.43-20.78-1.7-45.741-1.8-61.361 14.45-3.22-1.45-3.61-5.8612-1.1-8.1812 8.6-8.71 21.05-10.749 32.7-12.419 4.7453-0.35937 9.5405-0.54584 14.352-0.53906zm202.31 14.239c-1.72 3.07-1.8106 7.2288 1.7594 8.8688 23.85 18 32.941 45.89 37.391 76.22 5.88 3.73 12.349 8.5409 19.189 9.4609 11.19-15.24 21.27-31.641 31.3-47.581-29.57-15.88-59.129-33.629-89.639-46.969zm9.0203 8.8c24.31 11.52 47.289 26.529 71.839 37.969 3.07 1.01 1.6006 4.45 0.14064 6.2-8.32 11.55-14.63 24.631-23.62 35.611-7.04-1.12-16.98-5.1706-15.07-14.291-0.65-26.22-18.049-46.529-33.289-65.489zm-227.21 1.1297c-1.17 4.43-3.9891 9.4894-2.1891 13.959 10.29 7.12 25.03-2.0391 34.43 6.8609 28.86 20.04 65.62 7.4091 97.6 16.089 10.5 4.45 24.47 9.2409 26.5 21.811 14.69 4.9 16-14.6 6.4-20.72-27.91-19.04-63.7-18.07-96.05-18.83-16.22 0.12-27.29-18.421-43.75-14.381-8.2 2.92-15.651-1.7291-22.941-4.7891zm1.9797 6.9594c15.3 4.24 32.94-0.40969 46.25 10.62 35.82 13.54 80.221-0.0106 112.21 24.859 4.58 3.28 4.7994 12.07-2.2406 11.32-27.42-41.66-86.19-8.0891-122.22-35.789-8.93-10.75-30.84 1.6991-34-11.011zm-146.76 1.15c-5.23 13.57-15.349 25.231-20.159 38.641 8.68 4.74 26.09 2.6794 30.2-8.6406 6-9.97-2.2806-24.66-10.041-30zm1.2094 9.15c14.94 5.13 2.24 37.651-14.25 26.411 2.61-9.21 9.29-17.931 14.25-26.411zm130.89 10.373c16.587 0.20006 24.651 22.361 27.714 36.217 1.84 4.52-11.29 10.89-2.85 10.47 15.07-4.71 0.69124-22.6 0.63124-30.22 10.4 15.55 21.67 32.049 31.08 48.859 12.72 34.91 16.59 72.41 15.93 109.43-5.16 22.14-36.019 30.22-53.659 18.25-7.1-9.77-11.831-21.199-19.911-30.269-2.92-13.45-4.99-27.231-7.85-40.811 20.37-1.92 3.9203 33.41 19.02 36.97-1.35-22.7-10.41-49.61-5.95-70.05-13.69-16.79-19.879-38.649-25.359-59.259-4.24-13.23 3.3197-25.081 15.78-28.911 1.9022-0.48282 3.7091-0.69726 5.425-0.67656zm-18.125 15.487c0.15 14.38 8.67 47.569 28.85 35.859-18.7-0.5-22.49-24.589-28.85-35.859zm389.12 3.8891c-7.44 5.85-9.1506 24.701-21.791 18.311-15.85-1.49-32.321 7.3891-40.441 20.889-4.47 14.14 5.2903 26.74 10.87 38.67-5.58 11.29-14.45 21.48-20.35 32.87-8.49-2.01-12.129-14.11-12.489-21.55-6.4 3.85-12.031 11.55-17.061 17.72 3.66 8.89 10.431 16.069 17.761 22.109-2.43 4.89-6.3106 8.9403-9.0406 13.67-7.43 7.26 6.4306 11.359 11.591 14.859 8.34-0.28 9.0287-14.34 15.469-17.32 15.29 5.73 36.021 8.4909 46.791-6.7391 14.75-17.49 8.1-42.86-4.55-59.63 5.03-9.63 11.08-18.871 17.3-27.761 7.78-0.76 7.0297 12.131 12.38 14.691 3.09-5.23 7.2406-9.8503 9.8906-15.32 1.71-8.06-13.541-10.27-8.3609-18.17 3.38-5.59 7.28-10.869 10.7-16.439-5.54-4.49-11.819-9.1809-18.669-10.861zm1.2297 6.3109c18.44 1.02 1.3594 15.96-1.2406 24.25 6.7 5.26 17.34 15.23 6.6297 22.48-3.77-5.03-6.7788-11.44-12.919-14.13-8.11 11.55-15.771 23.729-22.981 35.909 12.86 15.07 20.36 40.419 5.75 56.859-12.4 9.95-29.629 9.6309-43.889 4.2609-7.67 1.23-8.2006 20.219-18.241 14.359-11.84-6.42 15.45-18.41 3.7703-24.88-9.2-5.47-21.299-19.429-6.1594-26.159 5.61 3.82 9.0487 16.789 18.169 16.389 8.14-12.29 17.871-24.16 23.511-37.78-5.13-11.56-14.731-23.29-12.091-36.83 8.88-15.49 30.57-22.771 46.92-16.291 4.51-5.96 8.0203-12.659 12.77-18.439zm-438.98 0.57656c24.94-0.10652 34.467 30.355 41.816 50.542 6.34 30.84 18.32 60.71 17.52 93.02-13.25 17.39-40.16 11.841-53.85-1.6391-9.96-21.32-38-2.1906-53.87-16.141-10.92-11.25-26.08-18.329-39.05-23.659 25.48-4.11 50.511-11.67 76.611-11.05 1.68 7.27 2.1597 20.189 8.2297 23.509-3.01-28.58-13.86-55.949-16.92-84.609 0.14-11.33 5.3103-24.341 15.72-29.731 1.3027-0.15797 2.5672-0.23696 3.7938-0.2422zm124.67 4.2625c-3.84 4.85-9.2094 14.831 0.84062 16.641 34.5 14.07 71.859 23.569 109.26 23.739 9.18 1.42 9.8306-10.13 9.5906-16.3-40.67 3.7-82.431-9.0497-119.69-24.08zm-109.94 3.1406c1.87 13.16 16.02 26.49 4.55 39.48 18.27-7.18 2.18-31.23-4.55-39.48zm111.75 2.7094c35.61 14.62 74.18 23.931 112.77 23.861 2.14 11.95-14.86 5.8091-21.47 6.7891-28.46-4.98-57.441-9.8494-84.341-20.759-3.9-1.45-12.809-5.1806-6.9594-9.8906zm-143.11 10.1c-1.61 14.36 7.0012 43.53 26.431 33.13 5.95-5.71-7.2112-0.48938-9.7312-1.9094-12.48-4.7-10.2-24.28-16.7-31.22zm-280.22 0.74062c1.4198 0.12282 2.7675 1.0747 1.8375 2.6797-6.58 22.79-15.519 44.94-27.059 65.72-2.5-14.91 1.6297-29.49 2.6297-44.28 9.85-1.15-0.20969 16.6 4.6203 21.18 7.66-14.16 8.8994-31.471 16.609-45.141 0.40749-0.15 0.88921-0.20031 1.3625-0.15938zm711.04 7.3891c-0.9675 0.0161-1.8238 0.10312-2.2938 0.19062-15.54 0.08-25.161 18.87-12.311 29.38 8.66-5.29 11.891-18.239 18.791-25.959 2.61-3.075-1.2834-3.6592-4.1859-3.6109zm-5.3141 4.9906c5.3 0.59-4.6209 12.951-8.6109 15.591-5.86-5.38 2.0009-14.591 8.6109-15.591zm-557.08 7.0906c15.45 0.47 32.169-0.84093 46.839 1.8391-39.56-0.51-81.89 1.6209-121.68 10.261-4.32 3.27-5.68-1.6512-5.55-4.4312 26.54-4.54 53.481-6.8488 80.391-7.6688zm36.484 5.5062c30.336 0.0305 60.725 2.2288 90.545 7.6438 3.85-0.03 0.32907 7.9497-3.3609 3.4297-62.17-8.35-125.26-5.6103-187.14 3.9297-4.22-0.29-13.5 4.5406-10.83-3.5094 26.4-5.91 53.399-9.9606 80.489-10.841 10.077-0.4325 20.183-0.66328 30.295-0.65313zm431.48 8.3328c-19.21 16.91-44.06 27.611-69.48 29.511 16.38 9.91 34.24 17.369 49.97 28.419 1.62 1.15 4.3503 2.9209 5.8203 0.56093 11.59-14.91 21.849-30.82 33.389-45.78-5.93-4.58-12.98-10.311-19.7-12.711zm-271.23 2.79c3.88 1.43 13.88-0.7 12.57 4.85-3.71 0.27-13.16 0.95-12.57-4.85zm271.16 4.18c4.32-0.12 9.57 3.1803 11.7 6.7703-7.4 13.09-17.419 24.64-25.889 37.08-2.66 4.42-7.4-0.25938-10.3-1.8594-8.25-5.97-18.18-9.8912-25.88-16.281 19-3.42 34.869-14.979 50.369-25.709zm-355.21 2.9906c7.035-0.055 13.632 0.42376 17.777 2.8688-90.18-0.37-181.73 9.62-265.96 43.7-2.92 0.66-10.381 5.8606-8.6609-0.30938 73.33-35.01 156.25-43.46 236.44-45.92 5.895 0.305 13.368-0.28407 20.403-0.33907zm86.367 0.75c4.06 0.7 13.059-1.5909 12.559 5.0891-3.84-1.19-12.929 0.021-12.559-5.0891zm-72.25 6.1094c2.9561-0.0813 5.3272 0.42282 5.6203 2.8203-93 1.29-188.48 11.22-273.71 51.1-5.08 3.68-4.9603-5.4106-0.97031-5.9906 81.07-35.04 170.16-46.819 257.92-47.489 2.5706 0.73688 7.34-0.33605 11.141-0.44062zm75.03 1.1906c2.57 0.44 10.71-0.68062 9.45 3.6594-1.98 1.13-13.68-0.48938-9.45-3.6594zm84.95 0.95c60.38 10 115.08 39.219 167.8 68.859 42.44 27.36 83.181 57.52 121.29 90.68 1.57 5.06-6.7806-1.9697-7.9406-3.0297-63.57-52.95-136.46-93.23-210.59-129.36-22.46-9.26-45.97-15.96-69.61-21.27-1.83-0.83-3.1-4.9397-0.9-5.8797zm-158.77 4.1688c4.4029-0.0108 8.4322 1.8475 6.1703 7.1-58.96 7.45-118.95 19.241-171.26 48.761-4.78 1.96-10.191 6.6803-15.191 2.7203 53.5-30.26 114.96-43.87 174.6-57.55 1.6-0.63437 3.6784-1.0263 5.6797-1.0312zm419.89 0.69c-8.12 11.84-15.001 24.63-22.161 37.05 1.62 6.03 12.231 1.5397 16.531 0.57969 15.91-4.86 15.46-28.83 5.6297-37.63zm-449.74 0.74218c2.6812-0.045 4.5453 0.26813 1.8953 1.4781-54.25 11.41-108.08 26.589-158.04 51.009-2.33 1.82-5.11-1.6894-4.1-3.9594 48.59-23.07 100.71-37.901 153.45-47.861 0.615-0.22 4.1125-0.6222 6.7938-0.6672zm-43.242 0.71095c1.8003 0.0885 0.62688 3.6437-1.4719 3.3562-38.62 8.43-76.24 21.1-112.78 35.92 2.5-7.42 7.3994-14.59 12.359-20.58 32.14-8.49 65.271-13.04 98.291-16.77 1.7381-1.4653 2.8971-1.9612 3.6016-1.9266zm152.81 0.24843c2.9956-0.0266 5.8812 0.55157 4.975 4.1578-2.13-1.12-11.409 0.81031-9.6891-3.9797 1.08 0.0713 2.9167-0.16219 4.7141-0.17813zm80.166 4.2891c40.02 5.42 76.76 24.45 112.68 42 53.35 25.58 102.85 58.649 149.43 94.969-0.41002 9.22 6.1497 26.12-0.92034 30.87-71-74.28-159.17-133.13-257.79-163.48-2.29-0.36-4.52-1.7394-3.4-4.3594zm-79.23 3.61c3.2219 0.0696 6.8006 1.0609 5.7281 4.4297-2.46-0.75-11.41 1.1409-9.4297-4.0891 0.84688-0.21249 2.2371-0.37226 3.7016-0.34062zm338.27 0.37031c10.24 8.14-0.56904 27.519-14.089 25.789 1.9-9.52 9.669-17.219 14.089-25.789zm-258.1 4.9094c27.95 8.08 56.591 18.25 81.631 31.83-4.12 1.18-12.21 1.6012-16.57-2.0188-19.95-9.56-40.421-18.281-61.811-24.141-2.84-0.36-2.95-3.4203-3.25-5.6703zm2.8609 10.341c20.63 4.8 40.52 12.929 59.57 22.139 3.79 1.82-1.7113 4.6806-3.7313 2.6906-17.69-8.47-35.829-15.96-54.759-21.2-2.03 0.05-3.0497-3.1397-1.0797-3.6297zm0.10938 8.7094c17.85 4.42 35.281 11.29 51.841 19.2-0.08 5.27-6.2809 0.50062-9.0109-0.15938-13.62-7.46-31.71-10.091-42.83-19.041zm1.1297 7.8609c15.46 3.1 30.08 10.11 44.45 16.48 3.79 3.39-3.2791 2.9503-4.9891 0.97031-11.84-8.06-28.791-10.02-39.461-17.45zm73.559 9.7391c22.051 0.30333 34.602 25.275 37.611 45.041-1.32 12.34 11.34 25.299 3.45 37.309-19.47 7.45-47.13 10.81-62.37-6.5297-5.83-13.71-15.36-30.041-8.2797-44.291 2.24-12.67 7.0106-29.61 22.441-30.8 2.4844-0.52969 4.8673-0.76107 7.1484-0.72969zm24.931 5.5609c14.8 6.73 28.47 15.829 41.43 25.619 33.99 32.68 68.83 64.981 97.18 102.89 1.67 1.64-0.71936 2.9494-2.2094 3.1594-32.28-45.44-74.51-83.61-121.37-113.61-7.61-3.59-10.42-11.68-15.03-18.06zm-63.859 6c15-0.01 2.6394 14.099 4.5594 21.839-3.37-6.75-3.8594-14.459-4.5594-21.839zm49.74 4.21c-9.08 7.26-21.02 9.6806-32.43 8.7906-1.15 15.2 4.7903 36.329 20.52 41.759-6.95-11-18.191-22.78-15.491-37.55 9.95-0.17 19.58-3.8403 27.68-8.9703 11.81 9.11 17.881 25.77 14.191 40.6 9.68-0.36 4.8606-12.699 3.4406-18.559-3.23-9.21-7.881-24.35-17.911-26.07zm28.311 13.009c45.33 29.15 87.08 66.75 117.9 111.42-6.26 8.89-10.981-5.7997-14.511-10.18-26.87-39.02-61.24-74.09-103.05-97-0.88-0.95-1.959-3.9206-0.33904-4.2406zm2.139 9.85c15.37 5.54 25.791 19.351 36.541 31.131 20.21 23.54 38.589 49.04 52.009 77.1 2.36 3.41-4.4994 8.05-5.2594 3.1-17.18-43.83-52.511-78.371-83.291-111.33zm46.991 7.8203c32.93 21.68 59.4 52.19 80.7 85.28 0.82 1.8-0.88096 1.6509-2.011 1.0109-23.57-30.91-52.109-58.641-78.689-86.291zm-45.88 3.35c10.69 4.03 17.74 16.091 26.5 23.891 19.65 25.52 40.76 50.829 52.9 81.039 4.13 4.22-4.9713 6.3112-5.9813 1.8812-17.79-35.37-38.739-70.391-67.869-97.931-2.16-2.66-6.71-4.8197-5.55-8.8797zm42.91 21.51c19.06 19.26 50.08 39.139 47.28 69.119-14.5-23.9-31.36-46.329-47.28-69.119zm65.991 27.939c10.56 7.61 19.11 17.641 28.7 26.411 4.24 4.02-4.5213 7.9491-6.9313 3.8891-6.85-10.38-14.879-19.96-21.769-30.3z" fill="#333"/>
</g>
</svg>
